<svg id="Calque_1" data-name="Calque 1" xmlns="http://www.w3.org/2000/svg" viewBox="0 0 252.87 299.38"><defs><style>.cls-1,.cls-4{fill:#31341e;}.cls-1{opacity:0.53;}.cls-2{fill:#70a62f;}.cls-3{fill:#b2d06e;}.cls-5{fill:#502714;}.cls-6{fill:#783c26;}</style></defs><title>logo</title><ellipse class="cls-1" cx="91.32" cy="275.73" rx="91.32" ry="23.65"/><path class="cls-2" d="M236.23,115c-4.43-13.85-9-27.69-15.62-40.68C216,65.29,210.33,57,202,50.76c-9.63-7.19-20.71-9.5-32.45-9.54l-5.32.28c-13.35.67-24.84,5.42-34,15.37a79.63,79.63,0,0,0-12.4,18.6c-5.81,11.6-10,23.86-13.91,36.16-7.58,23.59-15.44,47.05-24.88,70-9,21.77-7.21,43.25,4.87,63.66,9.21,15.57,22.4,27,38.15,35.46,17.91,9.67,37,14.63,57.41,12.06,25.81-3.25,47.88-14.46,65.32-33.77,20.58-22.79,26.62-49.05,15-78C251,159.37,243.36,137.32,236.23,115Z" transform="translate(-32.02 -19.01)"/><path class="cls-2" d="M269.48,176.3c-8.17-20.3-15.43-40.88-22.08-61.7-4.87-15.25-9.79-30.5-17.05-44.84-5.25-10.35-11.74-19.77-21-27C197.64,33.64,184,30.51,169.48,30.41l-6.7.41c-12.32.72-23.57,4.47-33.33,12.15-9.47,7.46-16,17.21-21.32,27.88C101.94,83.3,97.5,96.43,93.26,109.62c-7.34,22.86-15,45.59-24.14,67.83-9,21.74-8.73,43.72,1.33,65.26,9.25,19.83,24,34.54,42.76,45.42,21,12.18,43.48,18.36,67.76,15.32,27.73-3.48,51.68-15.3,70.66-35.9C276.14,241,283.18,210.33,269.48,176.3Z" transform="translate(-32.02 -19.01)"/><path class="cls-3" d="M224.59,119c-3.77-12.81-7.63-25.61-13.3-37.63-4-8.39-8.76-16.1-15.82-21.84-8.2-6.65-17.64-8.79-27.64-8.82L163.3,51c-11.37.62-21.16,5-29,14.22a74.24,74.24,0,0,0-10.55,17.21c-5,10.73-8.48,22.07-11.85,33.45-6.46,21.82-13.15,43.52-21.2,64.76-7.62,20.14-6.13,40,4.15,58.89,7.85,14.41,19.08,24.95,32.5,32.81,15.25,8.95,31.51,13.54,48.89,11.16,22-3,40.78-13.38,55.63-31.24,17.54-21.09,22.68-45.38,12.76-72.12C237.2,160,230.66,139.61,224.59,119Z" transform="translate(-32.02 -19.01)"/><path class="cls-3" d="M254.91,175.67c-7-18.79-13.14-37.82-18.81-57.09-4.14-14.1-8.33-28.21-14.52-41.48-4.47-9.57-10-18.28-17.88-25-10-8.46-21.57-11.35-34-11.44l-5.71.38a47,47,0,0,0-28.38,11.24c-8.07,6.9-13.65,15.92-18.17,25.79-5.26,11.52-9,23.67-12.66,35.87-6.25,21.15-12.76,42.17-20.56,62.75-7.62,20.12-7.43,40.45,1.13,60.38,7.89,18.34,20.47,31.95,36.43,42,17.85,11.27,37,17,57.71,14.17,23.62-3.22,44-14.15,60.18-33.21C260.58,235.48,266.58,207.15,254.91,175.67Z" transform="translate(-32.02 -19.01)"/><path class="cls-4" d="M169.45,19c15.7.11,30.4,3.48,43.05,13.35,10,7.79,17,18,22.67,29.14,7.85,15.48,13.15,32,18.41,48.41,7.19,22.48,15,44.7,23.84,66.62,14.79,36.74,7.2,69.81-19.27,98.53-20.5,22.24-46.35,35-76.29,38.76-26.22,3.28-50.53-3.39-73.16-16.54-20.23-11.75-36.18-27.63-46.18-49-10.85-23.26-11.1-47-1.43-70.47,9.88-24,18.14-48.55,26.06-73.24,4.58-14.24,9.38-28.41,16-41.85,5.73-11.53,12.81-22.06,23-30.11,10.53-8.29,22.68-12.34,36-13.11Zm.12,11.68-5.74.29c-14.42.73-26.83,5.86-36.73,16.6a85.66,85.66,0,0,0-13.38,20.08c-6.28,12.53-10.75,25.76-15,39.05C90.51,132.18,82,157.5,71.83,182.28,62.16,205.79,64.05,229,77.09,251c10,16.81,24.18,29.11,41.19,38.29,19.34,10.44,39.95,15.8,62,13,27.87-3.51,51.7-15.61,70.52-36.46,22.23-24.61,28.75-53,16.17-84.17-9.46-23.45-17.74-47.26-25.44-71.31-4.78-15-9.67-29.9-16.86-43.93-5-9.79-11.1-18.79-20.06-25.48C194.21,33.22,182.24,30.72,169.57,30.69Z" transform="translate(-32.02 -19.01)"/><path class="cls-5" d="M184,187.42c-9.29-7.13-19.68-7-29,.06s-14.92,16.39-18.31,27.28c-1.85,6-2.59,12-1.18,18.22,4.32,18.91,23.84,30.36,43.16,25.31,15.25-4,25.63-16.83,25.58-34.83C203.14,210.62,196.81,197.29,184,187.42Z" transform="translate(-32.02 -19.01)"/><path class="cls-5" d="M192.48,179c-14.21-11.18-30.66-11.48-45-.52-10.89,8.3-17.64,19.54-21.75,32.42A46.9,46.9,0,0,0,124.5,237c5.62,22.56,29.14,38.11,54,33.15,22.41-4.47,37.64-22.62,37.37-43.83C215.68,209.25,206,189.67,192.48,179Z" transform="translate(-32.02 -19.01)"/><path class="cls-4" d="M169.56,120.75c7.47,0,14.94,0,22.41,0,4.38,0,6.22,2,6.09,6.37-.48,16.43-15.37,29-31.83,27.09A28.62,28.62,0,0,1,141,126.91c-.14-4.07,1.88-6.14,5.91-6.15C154.47,120.73,162,120.75,169.56,120.75Z" transform="translate(-32.02 -19.01)"/><path class="cls-4" d="M140.56,111a9.92,9.92,0,0,1-10,9.94,10,10,0,1,1,.1-20A9.91,9.91,0,0,1,140.56,111Z" transform="translate(-32.02 -19.01)"/><path class="cls-4" d="M208.66,101a10,10,0,1,1-.1,20,10,10,0,1,1,.1-20Z" transform="translate(-32.02 -19.01)"/><path class="cls-6" d="M188,188.2c-7.77-6.31-16.46-6.17-24.21.05s-12.49,14.5-15.32,24.14a32.34,32.34,0,0,0-1,16.11c3.61,16.74,19.93,26.86,36.08,22.4,12.76-3.53,21.44-14.9,21.4-30.82A45.7,45.7,0,0,0,188,188.2Z" transform="translate(-32.02 -19.01)"/><path class="cls-6" d="M195.07,180.78c-11.88-9.89-25.63-10.15-37.65-.46-9.11,7.35-14.75,17.29-18.19,28.69a43.8,43.8,0,0,0-1,23.06c4.7,20,24.36,33.72,45.17,29.33a38.87,38.87,0,0,0,31.25-38.78C214.47,207.51,206.37,190.19,195.07,180.78Z" transform="translate(-32.02 -19.01)"/></svg>