<svg xmlns="http://www.w3.org/2000/svg" xmlns:xlink="http://www.w3.org/1999/xlink" xml:space="preserve" version="1.0" style="shape-rendering:geometricPrecision;text-rendering:geometricPrecision;image-rendering:optimizeQuality;" viewBox="0 0 10000 12500" x="0px" y="0px" fill-rule="evenodd" clip-rule="evenodd"><defs><style type="text/css">
   
    .fil0 {fill:black;fill-rule:nonzero}
   
  </style></defs><g><path class="fil0" d="M8804 5911c-2536,0 -5072,0 -7608,0 49,525 473,964 1013,964l5582 0c541,0 964,-440 1013,-964zm-5523 -1755c111,-630 761,-553 1221,-235l26 24 1 -18c4,-157 -49,-416 -108,-608 -35,-147 20,-263 150,-336 270,-153 731,-35 793,294l48 226 227 -271c114,-136 286,-175 437,-148 117,22 233,87 294,193 23,41 38,86 41,134 163,-35 365,-33 484,102 48,55 74,123 76,199 2,84 -25,176 -84,266 55,119 72,309 93,441l225 -344c712,-942 2093,126 1056,1628l652 0c57,0 104,47 104,104 0,679 -530,1276 -1226,1276l-5582 0c-693,0 -1224,-594 -1226,-1273l0 -3c0,-57 47,-104 104,-104l531 0c133,-833 809,-1501 1663,-1547zm3467 -359c11,-28 16,-55 15,-80 0,-25 -9,-49 -24,-66 -87,-99 -331,-31 -430,5 -31,14 -67,13 -97,-5 -49,-30 -65,-94 -36,-143 31,-52 31,-96 13,-128 -29,-51 -95,-81 -151,-91 -84,-16 -179,4 -240,76l-364 435c-15,17 -35,30 -59,35 -56,12 -111,-24 -123,-81l-91 -437c-46,-247 -573,-241 -540,-55 64,208 121,492 116,670 -2,65 -13,121 -34,162 -80,157 -230,88 -327,-8 -271,-185 -778,-372 -883,72 663,46 1228,470 1496,1070 188,-540 654,-643 1089,-254l16 17 1 -19c17,-383 -300,-1001 85,-1228 59,-35 127,-56 198,-62 131,-11 267,32 370,115zm-1629 1848l11 58 2873 0c1020,-1323 -60,-2258 -632,-1503l-363 557c-16,24 -41,41 -71,46 -56,9 -110,-30 -119,-86 -46,-283 -36,-858 -424,-827 -387,31 -75,727 -91,1091 -3,72 -15,133 -35,177 -87,181 -246,78 -335,-35 -488,-429 -781,-7 -814,522zm-1745 -1283c-779,0 -1410,588 -1545,1341l3090 0c-135,-753 -767,-1341 -1545,-1341z"/><path class="fil0" d="M2403 5326c-57,0 -104,-47 -104,-104 0,-58 47,-105 104,-105l69 0c57,0 104,47 104,105 0,57 -47,104 -104,104l-69 0z"/><path class="fil0" d="M3740 5280c-58,0 -105,-46 -105,-104 0,-58 47,-104 105,-104l68 0c58,0 104,46 104,104 0,58 -46,104 -104,104l-68 0z"/><path class="fil0" d="M3134 5267c-57,0 -104,-46 -104,-104 0,-58 47,-104 104,-104l69 0c57,0 104,46 104,104 0,58 -47,104 -104,104l-69 0z"/><path class="fil0" d="M3413 4929c-58,0 -105,-47 -105,-105 0,-57 47,-104 105,-104l68 0c57,0 104,47 104,104 0,58 -47,105 -104,105l-68 0z"/><path class="fil0" d="M2814 4948c-58,0 -105,-47 -105,-104 0,-58 47,-104 105,-104l68 0c57,0 104,46 104,104 0,57 -47,104 -104,104l-68 0z"/><path class="fil0" d="M4182 5449c-57,0 -104,-46 -104,-104 0,-57 47,-104 104,-104l69 0c57,0 104,47 104,104 0,58 -47,104 -104,104l-69 0z"/></g><text x="0" y="10015" fill="#000000" font-size="5px" font-weight="bold" font-family="'Helvetica Neue', Helvetica, Arial-Unicode, Arial, Sans-serif">Created by Ragal Kartidev</text><text x="0" y="10020" fill="#000000" font-size="5px" font-weight="bold" font-family="'Helvetica Neue', Helvetica, Arial-Unicode, Arial, Sans-serif">from the Noun Project</text></svg>